<?xml version="1.0" standalone="no"?>
<svg xmlns:xlink="http://www.w3.org/1999/xlink" id="wave" style="transform:rotate(180deg); transition: 0.3s" viewBox="0 0 1440 490" version="1.1" xmlns="http://www.w3.org/2000/svg"><defs><linearGradient id="sw-gradient-0" x1="0" x2="0" y1="1" y2="0"><stop stop-color="rgba(168.786, 71.725, 40.552, 1)" offset="0%"/><stop stop-color="rgba(109.589, 12.716, 30.931, 1)" offset="100%"/></linearGradient></defs><path style="transform:translate(0, 0px); opacity:1" fill="url(#sw-gradient-0)" d="M0,441L60,441C120,441,240,441,360,375.7C480,310,600,180,720,106.2C840,33,960,16,1080,40.8C1200,65,1320,131,1440,130.7C1560,131,1680,65,1800,89.8C1920,114,2040,229,2160,245C2280,261,2400,180,2520,138.8C2640,98,2760,98,2880,130.7C3000,163,3120,229,3240,285.8C3360,343,3480,392,3600,359.3C3720,327,3840,212,3960,147C4080,82,4200,65,4320,81.7C4440,98,4560,147,4680,204.2C4800,261,4920,327,5040,310.3C5160,294,5280,196,5400,171.5C5520,147,5640,196,5760,245C5880,294,6000,343,6120,326.7C6240,310,6360,229,6480,236.8C6600,245,6720,343,6840,343C6960,343,7080,245,7200,187.8C7320,131,7440,114,7560,138.8C7680,163,7800,229,7920,245C8040,261,8160,229,8280,204.2C8400,180,8520,163,8580,155.2L8640,147L8640,490L8580,490C8520,490,8400,490,8280,490C8160,490,8040,490,7920,490C7800,490,7680,490,7560,490C7440,490,7320,490,7200,490C7080,490,6960,490,6840,490C6720,490,6600,490,6480,490C6360,490,6240,490,6120,490C6000,490,5880,490,5760,490C5640,490,5520,490,5400,490C5280,490,5160,490,5040,490C4920,490,4800,490,4680,490C4560,490,4440,490,4320,490C4200,490,4080,490,3960,490C3840,490,3720,490,3600,490C3480,490,3360,490,3240,490C3120,490,3000,490,2880,490C2760,490,2640,490,2520,490C2400,490,2280,490,2160,490C2040,490,1920,490,1800,490C1680,490,1560,490,1440,490C1320,490,1200,490,1080,490C960,490,840,490,720,490C600,490,480,490,360,490C240,490,120,490,60,490L0,490Z"/></svg>